<svg xmlns="http://www.w3.org/2000/svg" viewBox="0 0 160 160" role="img" aria-labelledby="title desc">
  <title id="title">Sister profile silhouette</title>
  <desc id="desc">Stylised silhouette of a Muslim sister wearing a hijab.</desc>
  <defs>
    <linearGradient id="bg" x1="0%" x2="100%" y1="0%" y2="100%">
      <stop offset="0%" stop-color="#fce7f3" />
      <stop offset="100%" stop-color="#fbcfe8" />
    </linearGradient>
    <linearGradient id="veil" x1="0%" x2="0%" y1="0%" y2="100%">
      <stop offset="0%" stop-color="#7f1d1d" />
      <stop offset="100%" stop-color="#58111a" />
    </linearGradient>
  </defs>
  <rect width="160" height="160" rx="80" fill="url(#bg)" />
  <g fill-rule="evenodd">
    <path fill="url(#veil)" d="M44 118c0-28 17-52 36-52s36 24 36 52v10c-11 8-23 12-36 12s-25-4-36-12z" />
    <path fill="#fdeff7" d="M53 60c0-17 12-31 27-31s27 14 27 31-12 31-27 31-27-14-27-31z" />
    <path fill="#fdf2f8" d="M56 72c9 7 18 10 24 10s15-3 24-10l3 9c0 15-12 27-27 27s-27-12-27-27z" />
    <path fill="#7f1d1d" d="M56 64c5-12 15-21 24-21s19 9 24 21c-8 6-17 9-24 9s-16-3-24-9z" />
    <path fill="#f8fafc" d="M72 92c-8 6-13 15-16 26 8 5 16 8 24 8s16-3 24-8c-3-11-8-20-16-26-4 2-8 3-12 3s-8-1-12-3z" />
  </g>
  <circle cx="80" cy="60" r="54" fill="none" stroke="#ec4899" stroke-width="4" stroke-dasharray="12 16" opacity="0.25" />
</svg>
