<svg xmlns="http://www.w3.org/2000/svg" viewBox="0 0 320 320" role="img" aria-labelledby="title desc">
  <title id="title">Sister silhouette avatar</title>
  <desc id="desc">Illustrated silhouette of a Muslim woman wearing a hijab.</desc>
  <defs>
    <radialGradient id="bgGradientFemale" cx="50%" cy="35%" r="75%">
      <stop offset="0%" stop-color="#fdebf2"/>
      <stop offset="55%" stop-color="#f9bed7"/>
      <stop offset="100%" stop-color="#ea7ca8"/>
    </radialGradient>
    <linearGradient id="hijabGradient" x1="0%" y1="0%" x2="0%" y2="100%">
      <stop offset="0%" stop-color="#5a2b3a"/>
      <stop offset="100%" stop-color="#2f1520"/>
    </linearGradient>
    <linearGradient id="faceGradientFemale" x1="0%" y1="0%" x2="0%" y2="100%">
      <stop offset="0%" stop-color="#f8d9c3"/>
      <stop offset="100%" stop-color="#e5a98c"/>
    </linearGradient>
  </defs>
  <circle cx="160" cy="160" r="160" fill="url(#bgGradientFemale)"/>
  <path d="M60 302c18-80 55-128 100-128s82 48 100 128z" fill="url(#hijabGradient)"/>
  <path d="M87 240c15-26 41-42 73-42s58 16 73 42c-17 14-45 22-73 22s-56-8-73-22z" fill="#14090d" opacity="0.45"/>
  <path d="M98 124c0-36 24-70 62-70s62 34 62 70c0 50-28 92-62 92s-62-42-62-92z" fill="url(#faceGradientFemale)"/>
  <path d="M86 134c0-55 36-102 74-102s74 47 74 102c0 12-2 24-5 34-15-28-42-46-69-46s-54 18-69 46c-3-10-5-22-5-34z" fill="#693249"/>
  <path d="M101 180c14-24 37-38 61-38s47 14 61 38c-14 34-39 56-61 56s-47-22-61-56z" fill="#f1e7df" opacity="0.2"/>
  <path d="M110 104c11-11 27-18 43-18s32 7 43 18c-10-22-27-36-43-36s-33 14-43 36z" fill="#30131e" opacity="0.3"/>
</svg>
